Coordinates
version=1
nRows=60
nColumns=12
inDegrees=yes

Units are S.I. units (second, meters, Newtons, ...)
Angles are in degrees

endheader
time	SC_y	SC_z	SC_x	AC_y	AC_z	AC_x	GH_y	GH_z	GH_yy	EL_x	PS_y
       0.0              -20.76        -0.5096          16.58          34.04          3.377         -18.88          67.32          49.49         -72.22          13.39          158.5
  0.009817              -20.76        -0.5054          16.58          34.04          3.376         -18.88          67.31          49.49         -72.23          13.41          158.5
   0.01963              -20.75        -0.5009          16.59          34.05          3.374         -18.87          67.31          49.49         -72.25          13.43          158.5
   0.02945              -20.75        -0.4961          16.59          34.05          3.372         -18.87          67.31          49.48         -72.27          13.44          158.5
   0.03927              -20.75         -0.491           16.6          34.06           3.37         -18.87           67.3          49.48         -72.28          13.46          158.5
   0.04909              -20.75        -0.4856           16.6          34.06          3.368         -18.86           67.3          49.48          -72.3          13.48          158.4
    0.0589              -20.75        -0.4798          16.61          34.07          3.365         -18.86           67.3          49.47         -72.32           13.5          158.4
   0.06872              -20.75        -0.4736          16.62          34.07          3.363         -18.85          67.29          49.47         -72.34          13.52          158.4
   0.07854              -20.75        -0.4669          16.62          34.08           3.36         -18.84          67.29          49.46         -72.36          13.55          158.4
   0.08835              -20.75        -0.4598          16.63          34.08          3.357         -18.84          67.28          49.46         -72.39          13.57          158.4
   0.09817              -20.75        -0.4522          16.64          34.09          3.354         -18.83          67.28          49.45         -72.41           13.6          158.4
     0.108              -20.75         -0.444          16.65           34.1           3.35         -18.82          67.27          49.44         -72.44          13.63          158.4
    0.1178              -20.75        -0.4351          16.66          34.11          3.347         -18.82          67.27          49.44         -72.47          13.66          158.4
    0.1276              -20.74        -0.4255          16.67          34.11          3.343         -18.81          67.26          49.43          -72.5           13.7          158.4
    0.1374              -20.74        -0.4151          16.68          34.12          3.339          -18.8          67.25          49.42         -72.53          13.74          158.3
    0.1473              -20.74        -0.4039          16.69          34.13          3.334         -18.79          67.24          49.41         -72.57          13.78          158.3
    0.1571              -20.74        -0.3917           16.7          34.14          3.329         -18.78          67.24           49.4         -72.61          13.82          158.3
    0.1669              -20.74        -0.3784          16.72          34.16          3.324         -18.76          67.23          49.39         -72.65          13.87          158.3
    0.1767              -20.74        -0.3638          16.73          34.17          3.318         -18.75          67.22          49.38          -72.7          13.92          158.3
    0.1865              -20.73        -0.3479          16.75          34.18          3.311         -18.74          67.21          49.37         -72.75          13.98          158.2
    0.1963              -20.73        -0.3304          16.77           34.2          3.304         -18.72          67.19          49.35         -72.81          14.04          158.2
    0.2062              -20.73        -0.3112          16.79          34.22          3.296          -18.7          67.18          49.34         -72.88          14.11          158.2
     0.216              -20.72          -0.29          16.81          34.24          3.287         -18.68          67.17          49.32         -72.95          14.19          158.2
    0.2258              -20.72        -0.2664          16.84          34.26          3.278         -18.66          67.15           49.3         -73.02          14.27          158.1
    0.2356              -20.72        -0.2402          16.86          34.28          3.267         -18.64          67.13          49.28         -73.11          14.37          158.1
    0.2454              -20.71        -0.2111           16.9          34.31          3.255         -18.61          67.11          49.26         -73.21          14.47          158.1
    0.2552              -20.71        -0.1783          16.93          34.34          3.242         -18.58          67.09          49.24         -73.31          14.59          158.0
    0.2651               -20.7        -0.1415          16.97          34.37          3.227         -18.55          67.07          49.21         -73.44          14.72          158.0
    0.2749               -20.7       -0.09997          17.01          34.41           3.21         -18.51          67.04          49.17         -73.57          14.87          157.9
    0.2847              -20.69       -0.05276          17.06          34.45           3.19         -18.47          67.01          49.14         -73.73          15.04          157.8
    0.2945              -20.68       0.001119          17.12           34.5          3.168         -18.42          66.97           49.1         -73.91          15.24          157.8
    0.3043              -20.67        0.06295          17.19          34.55          3.143         -18.37          66.93          49.05         -74.11          15.46          157.7
    0.3141              -20.66         0.1343          17.26          34.62          3.114          -18.3          66.88          48.99         -74.35          15.72          157.6
     0.324              -20.65         0.2173          17.35          34.69           3.08         -18.23          66.82          48.93         -74.62          16.02          157.4
    0.3338              -20.64         0.3144          17.46          34.78           3.04         -18.14          66.76          48.85         -74.94          16.37          157.3
    0.3436              -20.62         0.4288          17.58          34.88          2.993         -18.04          66.68          48.76         -75.32          16.78          157.1
    0.3534               -20.6         0.5647          17.72           35.0          2.938         -17.92          66.59          48.65         -75.77          17.27          156.9
    0.3632              -20.58         0.7277           17.9          35.15          2.871         -17.77          66.48          48.53         -76.31          17.86          156.7
    0.3731              -20.55         0.9249          18.11          35.32           2.79         -17.59          66.34          48.37         -76.96          18.57          156.4
    0.3829              -20.52          1.166          18.36          35.54          2.692         -17.38          66.18          48.19         -77.75          19.44          156.1
    0.3927              -20.48          1.463          18.68           35.8           2.57         -17.11          65.98          47.95         -78.73          20.51          155.7
    0.4025              -20.42          1.834          19.07          36.13          2.418         -16.78          65.73          47.66         -79.96          21.85          155.1
    0.4123              -20.36          2.301          19.57          36.55          2.227         -16.36          65.41           47.3          -81.5          23.53          154.5
    0.4221              -20.27          2.894           20.2          37.08          1.984         -15.82          65.01          46.83         -83.46          25.68          153.6
     0.432              -20.16          3.654          21.01          37.76          1.673         -15.14          64.49          46.24         -85.97          28.42          152.5
    0.4418              -20.03          4.629          22.05          38.63          1.274         -14.26          63.83          45.48         -89.18          31.94          151.1
    0.4516              -19.85          5.875          23.38          39.75          0.764         -13.14          62.98           44.5          -93.3          36.43          149.4
    0.4614              -19.63          7.441          25.04          41.15          0.123         -11.73          61.92          43.28         -98.47          42.08          147.1
    0.4712              -19.35           9.35          27.07          42.85        -0.6583         -10.02          60.63          41.79         -104.8          48.97          144.4
     0.481              -19.04          11.56          29.43          44.83         -1.564         -8.029          59.12          40.06         -112.1          56.95          141.2
    0.4909               -18.7          13.96          31.98          46.97         -2.544         -5.876           57.5          38.19         -120.0          65.59          137.8
    0.5007              -18.36          16.35          34.53          49.11         -3.525         -3.722          55.87          36.32         -127.9          74.23          134.4
    0.5105              -18.05          18.57          36.89          51.09          -4.43         -1.733          54.37          34.59         -135.2          82.21          131.2
    0.5203              -17.77          20.47          38.92           52.8         -5.212        -0.0173          53.08          33.09         -141.5           89.1          128.5
    0.5301              -17.55          22.04          40.58           54.2         -5.853          1.391          52.01          31.87         -146.7          94.75          126.3
    0.5399              -17.37          23.29          41.91          55.31         -6.362          2.511          51.17           30.9         -150.8          99.24          124.5
    0.5498              -17.24          24.26          42.95          56.18         -6.762          3.387          50.51          30.14         -154.0          102.8          123.1
    0.5596              -17.13          25.02          43.76          56.86         -7.073           4.07          49.99          29.54         -156.5          105.5          122.0
    0.5694              -17.04          25.61          44.39          57.39         -7.316          4.604          49.59          29.08         -158.5          107.6          121.2
    0.5792              -16.98          26.08          44.89          57.81         -7.507          5.024          49.27          28.71         -160.0          109.3          120.5
